
<svg width="16px" height="31px" viewBox="0 0 16 31" version="1.1" xmlns="http://www.w3.org/2000/svg" xmlns:xlink="http://www.w3.org/1999/xlink">
    <!-- Generator: Sketch 43.1 (39012) - http://www.bohemiancoding.com/sketch -->
    <desc>Created with Sketch.</desc>
    <defs></defs>
    <g id="Page-1" stroke="none" stroke-width="1" fill="none" fill-rule="evenodd">
        <g id="gallery-item" transform="translate(-1114.000000, -1063.000000)" fill-rule="nonzero" fill="#676767">
            <path d="M1124.46991,1094 L1117.71898,1094 L1117.71898,1080.10081 L1114,1080.10081 L1114,1073.71753 L1117.71887,1073.71753 L1117.71887,1070.13311 C1117.71887,1066.84242 1119.80236,1063 1125.67674,1063 C1127.74763,1063 1129.26789,1063.19178 1129.33142,1063.20004 L1129.95471,1063.2801 L1129.80462,1069.25374 L1129.1178,1069.24752 C1129.11638,1069.24752 1127.5731,1069.23303 1125.8896,1069.23303 C1124.63673,1069.23303 1124.47056,1069.53857 1124.47056,1070.75384 L1124.47056,1073.71893 L1130,1073.71893 L1129.69362,1080.1022 L1124.47121,1080.1022 L1124.47121,1094 L1124.46991,1094 Z M1119.11413,1092.62053 L1123.07313,1092.62053 L1123.07313,1078.72209 L1128.35973,1078.72209 L1128.53426,1075.097 L1123.07313,1075.097 L1123.07313,1070.75244 C1123.07313,1069.31781 1123.40742,1067.85217 1125.88808,1067.85217 C1126.88486,1067.85217 1127.83201,1067.857 1128.44129,1067.86183 L1128.52579,1064.50363 C1127.90945,1064.44912 1126.8841,1064.37947 1125.67521,1064.37947 C1120.83749,1064.37947 1119.11337,1067.35143 1119.11337,1070.13311 L1119.11337,1075.097 L1115.39461,1075.097 L1115.39461,1078.72209 L1119.11348,1078.72209 L1119.11348,1092.62053 L1119.11413,1092.62053 Z" id="Shape"></path>
        </g>
    </g>
</svg>
