<svg xmlns="http://www.w3.org/2000/svg" xmlns:sketch="http://www.bohemiancoding.com/sketch/ns" xmlns:xlink="http://www.w3.org/1999/xlink" height="24" version="1.1" width="24"><rect id="backgroundrect" width="100%" height="100%" x="0" y="0" fill="none" stroke="none"/><title/><desc/><defs/><g class="currentLayer"><title>Layer 1</title><g fill="#ffffff" fill-rule="evenodd" id="miu" stroke="#ffffff" stroke-width="1" class="selected" stroke-opacity="1" fill-opacity="1"><g id="Artboard-1" stroke="#ffffff" stroke-opacity="1" fill="#ffffff" fill-opacity="1"><g id="slice" stroke="#ffffff" stroke-opacity="1" fill="#ffffff" fill-opacity="1"/><path d="M1.5008359999999925,6 C1.2242319999999722,6 1,6.214035000000024 1,6.5046839999999975 L1,7.4953160000000025 C1,7.774045000000001 1.217741999999987,8 1.5008359999999925,8 L22.499164000000007,8 C22.775768000000028,8 23,7.785964999999976 23,7.4953160000000025 L23,6.5046839999999975 C23,6.225954999999999 22.782258000000013,6 22.499164000000007,6 L1.5008359999999925,6 zM1.5008359999999925,11 C1.2242319999999722,11 1,11.214035000000024 1,11.504683999999997 L1,12.495316000000003 C1,12.774045000000001 1.217741999999987,13 1.5008359999999925,13 L22.499164000000007,13 C22.775768000000028,13 23,12.785964999999976 23,12.495316000000003 L23,11.504683999999997 C23,11.225954999999999 22.782258000000013,11 22.499164000000007,11 L1.5008359999999925,11 zM1.5008359999999925,16 C1.2242319999999722,16 1,16.214035000000024 1,16.504683999999997 L1,17.495316000000003 C1,17.774045 1.217741999999987,18 1.5008359999999925,18 L22.499164000000007,18 C22.775768000000028,18 23,17.785964999999976 23,17.495316000000003 L23,16.504683999999997 C23,16.225955 22.782258000000013,16 22.499164000000007,16 L1.5008359999999925,16 z" fill="#ffffff" id="editor-list-view-hambuger-menu-glyph" stroke="#ffffff" stroke-opacity="1" fill-opacity="1"/></g></g></g></svg>