
<svg width="300px" height="84px" viewBox="0 0 300 84" version="1.1" xmlns="http://www.w3.org/2000/svg" xmlns:xlink="http://www.w3.org/1999/xlink">
    <!-- Generator: Sketch 43.1 (39012) - http://www.bohemiancoding.com/sketch -->
    <desc>Created with Sketch.</desc>
    <defs></defs>
    <g id="Page-1" stroke="none" stroke-width="1" fill="none" fill-rule="evenodd">
        <g id="gallery" transform="translate(-250.000000, -69.000000)">
            <g id="header-copy">
                <g id="vesnavector" transform="translate(250.000000, 70.000000)">
                    <rect id="backgroundrect" x="0" y="0" width="299.520767" height="82.5174419"></rect>
                    <g id="Layer-1">
                        <g id="svg_1">
                            <path d="M69.3450479,8.05872093 L69.3450479,4.97034884 L71.2140575,4.97034884 C72.9392971,4.97034884 73.8019169,5.40465116 73.8019169,6.51453488 C73.8019169,7.19011628 73.4664537,7.72093023 72.8913738,7.91395349 C72.4600639,8.05872093 71.9329073,8.05872093 71.2140575,8.05872093 L69.3450479,8.05872093 L69.3450479,8.05872093 Z M69.3450479,4.72906977 L69.3450479,1.88197674 L71.0702875,1.88197674 C72.6517572,1.88197674 73.4185304,2.17151163 73.4185304,3.23313953 C73.4185304,4.24651163 72.6517572,4.68081395 71.1182109,4.68081395 L69.3450479,4.68081395 L69.3450479,4.72906977 Z M69.0095847,8.34825581 L71.2619808,8.34825581 C72.1246006,8.34825581 72.7955272,8.3 73.2747604,8.01046512 C73.8019169,7.72093023 74.1373802,7.19011628 74.1373802,6.5627907 C74.1373802,5.59767442 73.5623003,4.92209302 72.3162939,4.8255814 C73.2747604,4.63255814 73.7539936,4.00523256 73.7539936,3.28139535 C73.7539936,2.65406977 73.4664537,2.17151163 72.9392971,1.93023256 C72.4600639,1.68895349 71.8370607,1.64069767 71.0223642,1.64069767 L69.0095847,1.64069767 L69.0095847,8.34825581 L69.0095847,8.34825581 Z M78.6900958,1.88197674 C79.5047923,1.88197674 80.0798722,1.88197674 80.5111821,2.12325581 C80.9904153,2.36453488 81.2779553,2.79883721 81.2779553,3.32965116 C81.2779553,4.00523256 80.942492,4.53604651 80.4153355,4.72906977 C79.9840256,4.92209302 79.4089457,4.92209302 78.6900958,4.92209302 L77.3003195,4.92209302 L77.3003195,1.88197674 L78.6900958,1.88197674 L78.6900958,1.88197674 Z M78.9297125,1.59244186 L76.9169329,1.59244186 L76.9169329,8.34825581 L77.2523962,8.34825581 L77.2523962,5.21162791 L78.8817891,5.21162791 C79.8402556,5.21162791 80.5591054,5.16337209 81.0383387,4.68081395 C81.3738019,4.34302326 81.6134185,3.86046512 81.6134185,3.32965116 C81.6134185,2.12325581 80.7507987,1.59244186 78.9297125,1.59244186 L78.9297125,1.59244186 Z M84.3929712,8.34825581 L89.0415335,8.34825581 L89.0415335,8.05872093 L84.7763578,8.05872093 L84.7763578,5.01860465 L88.6102236,5.01860465 L88.6102236,4.72906977 L84.7763578,4.72906977 L84.7763578,1.93023256 L88.9456869,1.93023256 L88.9456869,1.64069767 L84.3929712,1.64069767 L84.3929712,8.34825581 L84.3929712,8.34825581 Z M91.7731629,8.34825581 L92.0607029,8.34825581 L92.0607029,1.97848837 L94.7444089,8.34825581 L95.0798722,8.34825581 L97.7635783,1.97848837 L97.7635783,8.34825581 L98.0511182,8.34825581 L98.0511182,1.59244186 L97.571885,1.59244186 L94.9361022,7.9622093 L92.3003195,1.59244186 L91.8210863,1.59244186 L91.8210863,8.34825581 L91.7731629,8.34825581 Z M105.095847,1.88197674 L105.095847,4.92209302 L103.226837,4.92209302 C102.028754,4.92209302 101.118211,4.63255814 101.118211,3.32965116 C101.118211,2.12325581 102.172524,1.88197674 103.466454,1.88197674 L105.095847,1.88197674 L105.095847,1.88197674 Z M103.41853,1.59244186 C101.645367,1.59244186 100.734824,2.12325581 100.734824,3.37790698 C100.734824,4.53604651 101.453674,5.01860465 102.507987,5.16337209 L100.686901,8.3 L101.118211,8.3 L102.891374,5.16337209 L105.095847,5.16337209 L105.095847,8.3 L105.43131,8.3 L105.43131,1.54418605 L103.41853,1.54418605 L103.41853,1.59244186 Z M118.035144,1.88197674 L118.035144,8.05872093 L113.386581,8.05872093 C113.865815,7.52790698 114.153355,6.41802326 114.153355,5.06686047 L114.153355,1.88197674 L118.035144,1.88197674 L118.035144,1.88197674 Z M112.428115,8.05872093 L112.428115,9.98895349 L112.763578,9.98895349 L112.763578,8.34825581 L118.801917,8.34825581 L118.801917,9.98895349 L119.13738,9.98895349 L119.13738,8.05872093 L118.370607,8.05872093 L118.370607,1.59244186 L113.769968,1.59244186 L113.769968,4.68081395 C113.769968,6.65930233 113.530351,7.38313953 112.955272,8.05872093 L112.428115,8.05872093 L112.428115,8.05872093 Z M121.677316,8.34825581 L126.325879,8.34825581 L126.325879,8.05872093 L122.060703,8.05872093 L122.060703,5.01860465 L125.894569,5.01860465 L125.894569,4.72906977 L122.060703,4.72906977 L122.060703,1.93023256 L126.230032,1.93023256 L126.230032,1.64069767 L121.677316,1.64069767 L121.677316,8.34825581 L121.677316,8.34825581 Z M130.830671,1.88197674 C131.645367,1.88197674 132.220447,1.88197674 132.651757,2.12325581 C133.13099,2.36453488 133.41853,2.79883721 133.41853,3.32965116 C133.41853,4.00523256 133.083067,4.53604651 132.555911,4.72906977 C132.124601,4.92209302 131.549521,4.92209302 130.830671,4.92209302 L129.392971,4.92209302 L129.392971,1.88197674 L130.830671,1.88197674 L130.830671,1.88197674 Z M131.070288,1.59244186 L129.057508,1.59244186 L129.057508,8.34825581 L129.392971,8.34825581 L129.392971,5.21162791 L131.022364,5.21162791 C131.980831,5.21162791 132.699681,5.16337209 133.178914,4.68081395 C133.514377,4.34302326 133.753994,3.86046512 133.753994,3.32965116 C133.753994,2.12325581 132.84345,1.59244186 131.070288,1.59244186 L131.070288,1.59244186 Z M138.162939,4.97034884 L138.594249,4.97034884 C140.175719,4.97034884 141.182109,5.59767442 141.182109,6.5627907 C141.182109,7.81744186 139.984026,8.20348837 138.833866,8.20348837 C137.492013,8.20348837 136.533546,7.47965116 136.4377,6.27325581 L136.102236,6.27325581 C136.198083,7.67267442 137.252396,8.49302326 138.881789,8.49302326 C140.319489,8.49302326 141.565495,7.9622093 141.565495,6.5627907 C141.565495,5.64593023 140.846645,4.97034884 139.744409,4.8255814 C140.750799,4.72906977 141.277955,3.95697674 141.277955,3.23313953 C141.277955,2.075 140.319489,1.44767442 138.833866,1.44767442 C137.396166,1.44767442 136.341853,2.31627907 136.29393,3.42616279 L136.629393,3.42616279 C136.677316,2.46104651 137.683706,1.7372093 138.881789,1.7372093 C139.984026,1.7372093 140.942492,2.21976744 140.942492,3.18488372 C140.942492,4.05348837 140.271565,4.68081395 138.690096,4.68081395 L138.258786,4.68081395 L138.258786,4.97034884 L138.162939,4.97034884 Z M144.297125,8.34825581 L144.680511,8.34825581 L144.680511,5.79069767 L146.070288,4.4877907 L149.28115,8.3 L149.71246,8.3 L146.309904,4.24651163 L149.233227,1.54418605 L148.801917,1.54418605 L144.680511,5.35639535 L144.680511,1.54418605 L144.297125,1.54418605 L144.297125,8.34825581 L144.297125,8.34825581 Z M157.188498,8.34825581 L157.188498,1.59244186 L156.853035,1.59244186 L152.204473,7.81744186 L152.204473,1.59244186 L151.86901,1.59244186 L151.86901,8.34825581 L152.204473,8.34825581 L156.853035,2.17151163 L156.853035,8.34825581 L157.188498,8.34825581 L157.188498,8.34825581 Z M159.584665,8.34825581 L159.968051,8.34825581 L162.268371,5.16337209 L164.616613,8.34825581 L165,8.34825581 L162.460064,4.87383721 L164.85623,1.59244186 L164.472843,1.59244186 L162.268371,4.63255814 L160.063898,1.59244186 L159.632588,1.59244186 L162.028754,4.87383721 L159.584665,8.34825581 L159.584665,8.34825581 Z M176.980831,4.58430233 L180.095847,8.34825581 L180.527157,8.34825581 L177.220447,4.39127907 L180.095847,1.64069767 L179.664537,1.64069767 L175.782748,5.45290698 L175.782748,1.64069767 L175.399361,1.64069767 L175.399361,5.45290698 L171.517572,1.64069767 L171.086262,1.64069767 L173.961661,4.39127907 L170.654952,8.34825581 L171.086262,8.34825581 L174.201278,4.58430233 L175.447284,5.79069767 L175.447284,8.3 L175.782748,8.3 L175.782748,5.79069767 L176.980831,4.58430233 L176.980831,4.58430233 Z M182.683706,8.34825581 L187.332268,8.34825581 L187.332268,8.05872093 L183.067093,8.05872093 L183.067093,5.01860465 L186.900958,5.01860465 L186.900958,4.72906977 L183.067093,4.72906977 L183.067093,1.93023256 L187.236422,1.93023256 L187.236422,1.64069767 L182.683706,1.64069767 L182.683706,8.34825581 L182.683706,8.34825581 Z M189.105431,8.01046512 L189.105431,8.34825581 C189.249201,8.34825581 189.392971,8.39651163 189.536741,8.39651163 C190.734824,8.39651163 190.926518,6.51453488 190.926518,5.16337209 L190.926518,1.97848837 L194.904153,1.97848837 L194.904153,8.44476744 L195.239617,8.44476744 L195.239617,1.68895349 L190.543131,1.68895349 L190.543131,4.77732558 C190.543131,6.36976744 190.399361,8.10697674 189.488818,8.10697674 C189.345048,8.01046512 189.249201,8.01046512 189.105431,8.01046512 L189.105431,8.01046512 Z M199.025559,5.74244186 L200.654952,1.93023256 L202.236422,5.74244186 L199.025559,5.74244186 L199.025559,5.74244186 Z M197.587859,8.34825581 L197.923323,8.34825581 L198.881789,6.03197674 L202.332268,6.03197674 L203.290735,8.34825581 L203.626198,8.34825581 L200.798722,1.59244186 L200.415335,1.59244186 L197.587859,8.34825581 L197.587859,8.34825581 Z M205.926518,8.34825581 L206.261981,8.34825581 L206.261981,4.87383721 L210.958466,4.87383721 L210.958466,8.34825581 L211.29393,8.34825581 L211.29393,1.59244186 L210.958466,1.59244186 L210.958466,4.58430233 L206.261981,4.58430233 L206.261981,1.59244186 L205.926518,1.59244186 L205.926518,8.34825581 L205.926518,8.34825581 Z M219.920128,8.34825581 L219.920128,1.59244186 L219.536741,1.59244186 L214.888179,7.81744186 L214.888179,1.59244186 L214.552716,1.59244186 L214.552716,8.34825581 L214.888179,8.34825581 L219.536741,2.17151163 L219.536741,8.34825581 L219.920128,8.34825581 L219.920128,8.34825581 Z M228.498403,8.34825581 L228.498403,1.59244186 L228.115016,1.59244186 L223.466454,7.81744186 L223.466454,1.59244186 L223.13099,1.59244186 L223.13099,8.34825581 L223.466454,8.34825581 L228.115016,2.17151163 L228.115016,8.34825581 L228.498403,8.34825581 L228.498403,8.34825581 Z M224.376997,0 C224.376997,0.723837209 224.85623,1.25465116 225.814696,1.25465116 C226.677316,1.25465116 227.252396,0.675581395 227.252396,0 L226.916933,0 C226.916933,0.627325581 226.485623,0.965116279 225.814696,0.965116279 C225.095847,0.965116279 224.71246,0.627325581 224.71246,0 L224.376997,0 L224.376997,0 Z" id="svg_2" fill="#C4D468" fill-rule="nonzero"></path>
                            <path d="M69.3450479,8.05872093 L69.3450479,4.97034884 L71.2140575,4.97034884 C72.9392971,4.97034884 73.8019169,5.40465116 73.8019169,6.51453488 C73.8019169,7.19011628 73.4664537,7.72093023 72.8913738,7.91395349 C72.4600639,8.05872093 71.9329073,8.05872093 71.2140575,8.05872093 L69.3450479,8.05872093 L69.3450479,8.05872093 Z M69.3450479,4.72906977 L69.3450479,1.88197674 L71.0702875,1.88197674 C72.6517572,1.88197674 73.4185304,2.17151163 73.4185304,3.23313953 C73.4185304,4.24651163 72.6517572,4.68081395 71.1182109,4.68081395 L69.3450479,4.68081395 L69.3450479,4.72906977 Z M69.0095847,8.34825581 L71.2619808,8.34825581 C72.1246006,8.34825581 72.7955272,8.3 73.2747604,8.01046512 C73.8019169,7.72093023 74.1373802,7.19011628 74.1373802,6.5627907 C74.1373802,5.59767442 73.5623003,4.92209302 72.3162939,4.8255814 C73.2747604,4.63255814 73.7539936,4.00523256 73.7539936,3.28139535 C73.7539936,2.65406977 73.4664537,2.17151163 72.9392971,1.93023256 C72.4600639,1.68895349 71.8370607,1.64069767 71.0223642,1.64069767 L69.0095847,1.64069767 L69.0095847,8.34825581 L69.0095847,8.34825581 Z M78.6900958,1.88197674 C79.5047923,1.88197674 80.0798722,1.88197674 80.5111821,2.12325581 C80.9904153,2.36453488 81.2779553,2.79883721 81.2779553,3.32965116 C81.2779553,4.00523256 80.942492,4.53604651 80.4153355,4.72906977 C79.9840256,4.92209302 79.4089457,4.92209302 78.6900958,4.92209302 L77.3003195,4.92209302 L77.3003195,1.88197674 L78.6900958,1.88197674 L78.6900958,1.88197674 Z M78.9297125,1.59244186 L76.9169329,1.59244186 L76.9169329,8.34825581 L77.2523962,8.34825581 L77.2523962,5.21162791 L78.8817891,5.21162791 C79.8402556,5.21162791 80.5591054,5.16337209 81.0383387,4.68081395 C81.3738019,4.34302326 81.6134185,3.86046512 81.6134185,3.32965116 C81.6134185,2.12325581 80.7507987,1.59244186 78.9297125,1.59244186 L78.9297125,1.59244186 Z M84.3929712,8.34825581 L89.0415335,8.34825581 L89.0415335,8.05872093 L84.7763578,8.05872093 L84.7763578,5.01860465 L88.6102236,5.01860465 L88.6102236,4.72906977 L84.7763578,4.72906977 L84.7763578,1.93023256 L88.9456869,1.93023256 L88.9456869,1.64069767 L84.3929712,1.64069767 L84.3929712,8.34825581 L84.3929712,8.34825581 Z M91.7731629,8.34825581 L92.0607029,8.34825581 L92.0607029,1.97848837 L94.7444089,8.34825581 L95.0798722,8.34825581 L97.7635783,1.97848837 L97.7635783,8.34825581 L98.0511182,8.34825581 L98.0511182,1.59244186 L97.571885,1.59244186 L94.9361022,7.9622093 L92.3003195,1.59244186 L91.8210863,1.59244186 L91.8210863,8.34825581 L91.7731629,8.34825581 Z M105.095847,1.88197674 L105.095847,4.92209302 L103.226837,4.92209302 C102.028754,4.92209302 101.118211,4.63255814 101.118211,3.32965116 C101.118211,2.12325581 102.172524,1.88197674 103.466454,1.88197674 L105.095847,1.88197674 L105.095847,1.88197674 Z M103.41853,1.59244186 C101.645367,1.59244186 100.734824,2.12325581 100.734824,3.37790698 C100.734824,4.53604651 101.453674,5.01860465 102.507987,5.16337209 L100.686901,8.3 L101.118211,8.3 L102.891374,5.16337209 L105.095847,5.16337209 L105.095847,8.3 L105.43131,8.3 L105.43131,1.54418605 L103.41853,1.54418605 L103.41853,1.59244186 Z M118.035144,1.88197674 L118.035144,8.05872093 L113.386581,8.05872093 C113.865815,7.52790698 114.153355,6.41802326 114.153355,5.06686047 L114.153355,1.88197674 L118.035144,1.88197674 L118.035144,1.88197674 Z M112.428115,8.05872093 L112.428115,9.98895349 L112.763578,9.98895349 L112.763578,8.34825581 L118.801917,8.34825581 L118.801917,9.98895349 L119.13738,9.98895349 L119.13738,8.05872093 L118.370607,8.05872093 L118.370607,1.59244186 L113.769968,1.59244186 L113.769968,4.68081395 C113.769968,6.65930233 113.530351,7.38313953 112.955272,8.05872093 L112.428115,8.05872093 L112.428115,8.05872093 Z M121.677316,8.34825581 L126.325879,8.34825581 L126.325879,8.05872093 L122.060703,8.05872093 L122.060703,5.01860465 L125.894569,5.01860465 L125.894569,4.72906977 L122.060703,4.72906977 L122.060703,1.93023256 L126.230032,1.93023256 L126.230032,1.64069767 L121.677316,1.64069767 L121.677316,8.34825581 L121.677316,8.34825581 Z M130.830671,1.88197674 C131.645367,1.88197674 132.220447,1.88197674 132.651757,2.12325581 C133.13099,2.36453488 133.41853,2.79883721 133.41853,3.32965116 C133.41853,4.00523256 133.083067,4.53604651 132.555911,4.72906977 C132.124601,4.92209302 131.549521,4.92209302 130.830671,4.92209302 L129.392971,4.92209302 L129.392971,1.88197674 L130.830671,1.88197674 L130.830671,1.88197674 Z M131.070288,1.59244186 L129.057508,1.59244186 L129.057508,8.34825581 L129.392971,8.34825581 L129.392971,5.21162791 L131.022364,5.21162791 C131.980831,5.21162791 132.699681,5.16337209 133.178914,4.68081395 C133.514377,4.34302326 133.753994,3.86046512 133.753994,3.32965116 C133.753994,2.12325581 132.84345,1.59244186 131.070288,1.59244186 L131.070288,1.59244186 Z M138.162939,4.97034884 L138.594249,4.97034884 C140.175719,4.97034884 141.182109,5.59767442 141.182109,6.5627907 C141.182109,7.81744186 139.984026,8.20348837 138.833866,8.20348837 C137.492013,8.20348837 136.533546,7.47965116 136.4377,6.27325581 L136.102236,6.27325581 C136.198083,7.67267442 137.252396,8.49302326 138.881789,8.49302326 C140.319489,8.49302326 141.565495,7.9622093 141.565495,6.5627907 C141.565495,5.64593023 140.846645,4.97034884 139.744409,4.8255814 C140.750799,4.72906977 141.277955,3.95697674 141.277955,3.23313953 C141.277955,2.075 140.319489,1.44767442 138.833866,1.44767442 C137.396166,1.44767442 136.341853,2.31627907 136.29393,3.42616279 L136.629393,3.42616279 C136.677316,2.46104651 137.683706,1.7372093 138.881789,1.7372093 C139.984026,1.7372093 140.942492,2.21976744 140.942492,3.18488372 C140.942492,4.05348837 140.271565,4.68081395 138.690096,4.68081395 L138.258786,4.68081395 L138.258786,4.97034884 L138.162939,4.97034884 Z M144.297125,8.34825581 L144.680511,8.34825581 L144.680511,5.79069767 L146.070288,4.4877907 L149.28115,8.3 L149.71246,8.3 L146.309904,4.24651163 L149.233227,1.54418605 L148.801917,1.54418605 L144.680511,5.35639535 L144.680511,1.54418605 L144.297125,1.54418605 L144.297125,8.34825581 L144.297125,8.34825581 Z M157.188498,8.34825581 L157.188498,1.59244186 L156.853035,1.59244186 L152.204473,7.81744186 L152.204473,1.59244186 L151.86901,1.59244186 L151.86901,8.34825581 L152.204473,8.34825581 L156.853035,2.17151163 L156.853035,8.34825581 L157.188498,8.34825581 L157.188498,8.34825581 Z M159.584665,8.34825581 L159.968051,8.34825581 L162.268371,5.16337209 L164.616613,8.34825581 L165,8.34825581 L162.460064,4.87383721 L164.85623,1.59244186 L164.472843,1.59244186 L162.268371,4.63255814 L160.063898,1.59244186 L159.632588,1.59244186 L162.028754,4.87383721 L159.584665,8.34825581 L159.584665,8.34825581 Z M176.980831,4.58430233 L180.095847,8.34825581 L180.527157,8.34825581 L177.220447,4.39127907 L180.095847,1.64069767 L179.664537,1.64069767 L175.782748,5.45290698 L175.782748,1.64069767 L175.399361,1.64069767 L175.399361,5.45290698 L171.517572,1.64069767 L171.086262,1.64069767 L173.961661,4.39127907 L170.654952,8.34825581 L171.086262,8.34825581 L174.201278,4.58430233 L175.447284,5.79069767 L175.447284,8.3 L175.782748,8.3 L175.782748,5.79069767 L176.980831,4.58430233 L176.980831,4.58430233 Z M182.683706,8.34825581 L187.332268,8.34825581 L187.332268,8.05872093 L183.067093,8.05872093 L183.067093,5.01860465 L186.900958,5.01860465 L186.900958,4.72906977 L183.067093,4.72906977 L183.067093,1.93023256 L187.236422,1.93023256 L187.236422,1.64069767 L182.683706,1.64069767 L182.683706,8.34825581 L182.683706,8.34825581 Z M189.105431,8.01046512 L189.105431,8.34825581 C189.249201,8.34825581 189.392971,8.39651163 189.536741,8.39651163 C190.734824,8.39651163 190.926518,6.51453488 190.926518,5.16337209 L190.926518,1.97848837 L194.904153,1.97848837 L194.904153,8.44476744 L195.239617,8.44476744 L195.239617,1.68895349 L190.543131,1.68895349 L190.543131,4.77732558 C190.543131,6.36976744 190.399361,8.10697674 189.488818,8.10697674 C189.345048,8.01046512 189.249201,8.01046512 189.105431,8.01046512 L189.105431,8.01046512 Z M199.025559,5.74244186 L200.654952,1.93023256 L202.236422,5.74244186 L199.025559,5.74244186 L199.025559,5.74244186 Z M197.587859,8.34825581 L197.923323,8.34825581 L198.881789,6.03197674 L202.332268,6.03197674 L203.290735,8.34825581 L203.626198,8.34825581 L200.798722,1.59244186 L200.415335,1.59244186 L197.587859,8.34825581 L197.587859,8.34825581 Z M205.926518,8.34825581 L206.261981,8.34825581 L206.261981,4.87383721 L210.958466,4.87383721 L210.958466,8.34825581 L211.29393,8.34825581 L211.29393,1.59244186 L210.958466,1.59244186 L210.958466,4.58430233 L206.261981,4.58430233 L206.261981,1.59244186 L205.926518,1.59244186 L205.926518,8.34825581 L205.926518,8.34825581 Z M219.920128,8.34825581 L219.920128,1.59244186 L219.536741,1.59244186 L214.888179,7.81744186 L214.888179,1.59244186 L214.552716,1.59244186 L214.552716,8.34825581 L214.888179,8.34825581 L219.536741,2.17151163 L219.536741,8.34825581 L219.920128,8.34825581 L219.920128,8.34825581 Z M228.498403,8.34825581 L228.498403,1.59244186 L228.115016,1.59244186 L223.466454,7.81744186 L223.466454,1.59244186 L223.13099,1.59244186 L223.13099,8.34825581 L223.466454,8.34825581 L228.115016,2.17151163 L228.115016,8.34825581 L228.498403,8.34825581 L228.498403,8.34825581 Z M224.376997,0 C224.376997,0.723837209 224.85623,1.25465116 225.814696,1.25465116 C226.677316,1.25465116 227.252396,0.675581395 227.252396,0 L226.916933,0 C226.916933,0.627325581 226.485623,0.965116279 225.814696,0.965116279 C225.095847,0.965116279 224.71246,0.627325581 224.71246,0 L224.376997,0 L224.376997,0 Z" id="svg_3" stroke="#C4D468" stroke-width="0.5"></path>
                            <polygon id="svg_4" fill="#000000" fill-rule="nonzero" points="16.4377011 57.038378 0 14.9110436 2.63578275 14.9110436 17.9233198 54.1912732 32.8754023 14.8627922 35.4632588 14.8627922 19.4089457 57.038378"></polygon>
                            <polygon id="svg_5" fill="#000000" fill-rule="nonzero" points="299.664531 57.038378 283.610218 14.8627922 280.638966 14.8627922 264.201272 56.9901192 266.837055 56.9901192 282.172518 17.7098822 297.124601 57.038378"></polygon>
                            <polygon id="svg_6" fill="#000000" fill-rule="nonzero" points="94.9840314 57.038378 94.9840314 54.7703488 71.0223701 54.7703488 71.0223701 37.2534943 93.1629364 37.2534943 93.1629364 34.8889476 71.0223701 34.8889476 71.0223701 17.2273241 94.9840314 17.2273241 94.9840314 14.9110436 68.6741156 14.9110436 68.6741156 57.038378"></polygon>
                            <path d="M160.207668,47.0494186 C160.878594,38.3151163 152.300319,35.6610465 145.830671,34.4063953 C137.060703,32.7174419 133.178914,29.6773256 133.5623,24.8034884 C134.089457,17.130814 142.811502,16.5517442 145.447284,16.5517442 C149.520767,16.5517442 154.696486,17.9511628 157.044728,21.8598837 L157.236422,22.1494186 L159.392971,21.3290698 L159.153355,20.8947674 C156.661342,16.6482558 151.773163,14.3319767 145.495208,14.3319767 C138.594249,14.3319767 131.549521,17.5651163 131.261981,24.7552326 C130.878594,32.669186 138.162939,35.1784884 145.351438,36.6261628 C151.964856,38.0255814 158.338658,39.955814 157.811502,46.952907 C156.948882,53.177907 150.670927,55.3976744 145.543131,55.3976744 C140.271565,55.3976744 135.57508,53.2744186 133.035144,49.7517442 L132.84345,49.5104651 L130.686901,50.4273256 L130.974441,50.8616279 C133.897764,55.1563953 139.313099,57.6656977 145.399361,57.6656977 C152.15655,57.6174419 159.632588,54.3360465 160.207668,47.0494186 L160.207668,47.0494186 Z" id="svg_7" fill="#000000" fill-rule="nonzero"></path>
                            <polygon id="svg_8" fill="#000000" fill-rule="nonzero" points="228.690102 57.038378 228.690102 14.9110436 226.341847 14.9110436 226.341847 53.8534913 201.46966 14.9110436 198.498408 14.9110436 198.498408 57.038378 200.846634 57.038378 200.942486 18.5784884 225.431322 57.038378"></polygon>
                            <path d="M288.210863,57.1831395 C288.210863,60.6093023 285.479233,63.3598837 282.076677,63.3598837 C278.674121,63.3598837 275.942492,60.6093023 275.942492,57.1831395 C275.942492,53.7569767 278.674121,51.0063953 282.076677,51.0063953 C285.479233,51.0063953 288.210863,53.8052326 288.210863,57.1831395 L288.210863,57.1831395 Z" id="svg_9" fill="#C4D468" fill-rule="nonzero"></path>
                            <path d="M252.220447,36.7226744 C252.220447,38.122093 251.118211,39.2319767 249.728435,39.2319767 C248.338658,39.2319767 247.236422,38.122093 247.236422,36.7226744 C247.236422,35.3232558 248.338658,34.2133721 249.728435,34.2133721 C251.118211,34.2133721 252.220447,35.3232558 252.220447,36.7226744 L252.220447,36.7226744 Z" id="svg_10" fill="#C4D468" fill-rule="nonzero"></path>
                            <path d="M182.252396,37.6877907 C182.252396,39.0872093 181.15016,40.197093 179.760383,40.197093 C178.370607,40.197093 177.268371,39.0872093 177.268371,37.6877907 C177.268371,36.2883721 178.370607,35.1784884 179.760383,35.1784884 C181.15016,35.2267442 182.252396,36.3366279 182.252396,37.6877907 L182.252396,37.6877907 Z" id="svg_11" fill="#C4D468" fill-rule="nonzero"></path>
                            <path d="M117.268371,36.7226744 C117.268371,38.122093 116.166134,39.2319767 114.776358,39.2319767 C113.386581,39.2319767 112.284345,38.122093 112.284345,36.7226744 C112.284345,35.3232558 113.386581,34.2133721 114.776358,34.2133721 C116.166134,34.2133721 117.268371,35.3232558 117.268371,36.7226744 L117.268371,36.7226744 Z" id="svg_12" fill="#C4D468" fill-rule="nonzero"></path>
                            <path d="M48.7859425,36.7226744 C48.7859425,38.122093 47.6837061,39.2319767 46.2939297,39.2319767 C44.9041534,39.2319767 43.8019169,38.122093 43.8019169,36.7226744 C43.8019169,35.3232558 44.9041534,34.2133721 46.2939297,34.2133721 C47.6837061,34.2133721 48.7859425,35.3232558 48.7859425,36.7226744 L48.7859425,36.7226744 Z" id="svg_13" fill="#C4D468" fill-rule="nonzero"></path>
                            <path d="M2.73162939,72.2389535 L3.69009585,72.2389535 L3.69009585,75.6651163 L3.69009585,75.6651163 C4.02555911,75.0377907 4.6485623,74.7 5.51118211,74.7 C6.85303514,74.7 7.8115016,75.8098837 7.8115016,77.4505814 C7.8115016,79.380814 6.56549521,80.3459302 5.36741214,80.3459302 C4.60063898,80.3459302 3.97763578,80.0563953 3.54632588,79.3325581 L3.54632588,79.3325581 L3.49840256,80.2011628 L2.68370607,80.2011628 C2.68370607,79.8151163 2.73162939,79.2843023 2.73162939,78.8017442 L2.73162939,72.2389535 L2.73162939,72.2389535 Z M3.69009585,78.0296512 C3.69009585,78.1744186 3.69009585,78.2709302 3.73801917,78.3674419 C3.92971246,79.0430233 4.50479233,79.5255814 5.22364217,79.5255814 C6.27795527,79.5255814 6.85303514,78.7052326 6.85303514,77.4505814 C6.85303514,76.3406977 6.27795527,75.4238372 5.22364217,75.4238372 C4.55271565,75.4238372 3.92971246,75.9063953 3.73801917,76.6302326 C3.69009585,76.775 3.69009585,76.8715116 3.69009585,77.0645349 L3.69009585,78.0296512 L3.69009585,78.0296512 Z" id="svg_14" fill="#888E87" fill-rule="nonzero"></path>
                            <path d="M11.8370607,77.6918605 C11.8370607,79.0430233 12.6996805,79.5738372 13.7060703,79.5738372 C14.4249201,79.5738372 14.85623,79.4290698 15.1916933,79.2843023 L15.3833866,80.0081395 C15.0479233,80.152907 14.4249201,80.3459302 13.5623003,80.3459302 C11.884984,80.3459302 10.9265176,79.2360465 10.9265176,77.5953488 C10.9265176,75.9546512 11.884984,74.7 13.4664537,74.7 C15.2396166,74.7 15.7188498,76.244186 15.7188498,77.2575581 C15.7188498,77.4505814 15.7188498,77.5953488 15.6709265,77.7401163 L11.8370607,77.7401163 L11.8370607,77.6918605 Z M14.7124601,76.9680233 C14.7124601,76.3406977 14.4728435,75.3755814 13.370607,75.3755814 C12.3642173,75.3755814 11.9329073,76.2924419 11.884984,76.9680233 L14.7124601,76.9680233 L14.7124601,76.9680233 Z" id="svg_15" fill="#888E87" fill-rule="nonzero"></path>
                            <path d="M22.9073482,78.8982558 C22.9073482,79.380814 22.9073482,79.8151163 23.0031949,80.2011628 L22.1405751,80.2011628 L22.0447284,79.5255814 L21.9968051,79.5255814 C21.7092652,79.9598837 21.1341853,80.3459302 20.3674121,80.3459302 C19.2651757,80.3459302 18.7380192,79.5738372 18.7380192,78.8017442 C18.7380192,77.4988372 19.8881789,76.775 21.9968051,76.775 L21.9968051,76.6784884 C21.9968051,76.244186 21.8530351,75.4238372 20.7507987,75.4238372 C20.2236422,75.4238372 19.6964856,75.5686047 19.313099,75.8098837 L19.0734824,75.1343023 C19.5047923,74.8447674 20.1757188,74.6517442 20.8466454,74.6517442 C22.4760383,74.6517442 22.9073482,75.7616279 22.9073482,76.8715116 L22.9073482,78.8982558 L22.9073482,78.8982558 Z M21.9488818,77.4505814 C20.8945687,77.4505814 19.6485623,77.5953488 19.6485623,78.6569767 C19.6485623,79.2843023 20.0798722,79.622093 20.5591054,79.622093 C21.2779553,79.622093 21.7092652,79.1877907 21.9009585,78.7052326 C21.9488818,78.6087209 21.9488818,78.4639535 21.9488818,78.3674419 L21.9488818,77.4505814 L21.9488818,77.4505814 Z" id="svg_16" fill="#888E87" fill-rule="nonzero"></path>
                            <path d="M31.2460064,78.7052326 C31.2460064,79.2843023 31.2460064,79.7668605 31.2939297,80.2011628 L30.4313099,80.2011628 L30.3833866,79.3325581 L30.3833866,79.3325581 C30.14377,79.7668605 29.5686901,80.3459302 28.6102236,80.3459302 C27.7476038,80.3459302 26.7412141,79.8633721 26.7412141,77.9813953 L26.7412141,74.7965116 L27.6996805,74.7965116 L27.6996805,77.7883721 C27.6996805,78.8017442 28.0351438,79.5255814 28.8977636,79.5255814 C29.5686901,79.5255814 30,79.0430233 30.1916933,78.6087209 C30.2396166,78.4639535 30.2875399,78.2709302 30.2875399,78.1261628 L30.2875399,74.7965116 L31.2460064,74.7965116 L31.2460064,78.7052326 L31.2460064,78.7052326 Z" id="svg_17" fill="#888E87" fill-rule="nonzero"></path>
                            <path d="M36.2779553,73.4936047 L36.2779553,74.7965116 L37.6677316,74.7965116 L37.6677316,75.5686047 L36.2779553,75.5686047 L36.2779553,78.5122093 C36.2779553,79.1877907 36.4696486,79.5738372 36.9968051,79.5738372 C37.284345,79.5738372 37.428115,79.5738372 37.571885,79.5255814 L37.6198083,80.2976744 C37.428115,80.3459302 37.1405751,80.4424419 36.7571885,80.4424419 C36.2779553,80.4424419 35.942492,80.2976744 35.7028754,80.0081395 C35.4153355,79.7186047 35.3194888,79.2360465 35.3194888,78.5604651 L35.3194888,75.6168605 L34.5047923,75.6168605 L34.5047923,74.7965116 L35.3194888,74.7965116 L35.3194888,73.7831395 L36.2779553,73.4936047 L36.2779553,73.4936047 Z" id="svg_18" fill="#888E87" fill-rule="nonzero"></path>
                            <path d="M41.4536741,74.7965116 L42.6038339,78.0296512 C42.7476038,78.3674419 42.8913738,78.8017442 42.9392971,79.1395349 L42.9392971,79.1395349 C43.0351438,78.8017442 43.1309904,78.4156977 43.2747604,78.0296512 L44.3290735,74.8447674 L45.3833866,74.8447674 L43.8977636,78.7052326 C43.1789137,80.5872093 42.6996805,81.5040698 42.028754,82.0831395 C41.5495208,82.5174419 41.0702875,82.6622093 40.8306709,82.7104651 L40.5910543,81.8901163 C40.8306709,81.7936047 41.1661342,81.6488372 41.4536741,81.4075581 C41.7412141,81.2145349 42.028754,80.8284884 42.2683706,80.2976744 C42.3162939,80.2011628 42.3642173,80.1046512 42.3642173,80.0563953 C42.3642173,80.0081395 42.3642173,79.9116279 42.2683706,79.8151163 L40.3035144,74.7965116 L41.4536741,74.7965116 L41.4536741,74.7965116 Z" id="svg_19" fill="#888E87" fill-rule="nonzero"></path>
                            <path d="M52.7635783,77.2575581 C52.7635783,76.6302326 53.2907348,76.0994186 53.913738,76.0994186 C54.5367412,76.0994186 55.0638978,76.6302326 55.0638978,77.2575581 C55.0638978,77.8848837 54.5367412,78.4156977 53.8658147,78.4156977 C53.2907348,78.4639535 52.7635783,77.9331395 52.7635783,77.2575581 L52.7635783,77.2575581 Z" id="svg_20" fill="#888E87" fill-rule="nonzero"></path>
                            <path d="M66.9488818,78.8982558 C66.9488818,79.380814 66.9488818,79.8151163 67.0447284,80.2011628 L66.1341853,80.2011628 L66.0383387,79.5255814 L65.9904153,79.5255814 C65.7028754,79.9598837 65.1277955,80.3459302 64.3610224,80.3459302 C63.2587859,80.3459302 62.7316294,79.5738372 62.7316294,78.8017442 C62.7316294,77.4988372 63.8817891,76.775 65.9904153,76.775 L65.9904153,76.6784884 C65.9904153,76.244186 65.8466454,75.4238372 64.7444089,75.4238372 C64.2172524,75.4238372 63.6900958,75.5686047 63.3067093,75.8098837 L63.0670927,75.1343023 C63.4984026,74.8447674 64.1693291,74.6517442 64.8402556,74.6517442 C66.4696486,74.6517442 66.9009585,75.7616279 66.9009585,76.8715116 L66.9009585,78.8982558 L66.9488818,78.8982558 Z M65.9904153,77.4505814 C64.9361022,77.4505814 63.6900958,77.5953488 63.6900958,78.6569767 C63.6900958,79.2843023 64.1214058,79.622093 64.600639,79.622093 C65.3194888,79.622093 65.7507987,79.1877907 65.942492,78.7052326 C65.9904153,78.6087209 65.9904153,78.4639535 65.9904153,78.3674419 L65.9904153,77.4505814 L65.9904153,77.4505814 Z" id="svg_21" fill="#888E87" fill-rule="nonzero"></path>
                            <path d="M71.3099042,77.6918605 C71.3099042,79.0430233 72.172524,79.5738372 73.1789137,79.5738372 C73.8977636,79.5738372 74.3290735,79.4290698 74.6645367,79.2843023 L74.85623,80.0081395 C74.5207668,80.152907 73.8977636,80.3459302 73.0351438,80.3459302 C71.3578275,80.3459302 70.399361,79.2360465 70.399361,77.5953488 C70.399361,75.9546512 71.3578275,74.7 72.9392971,74.7 C74.7124601,74.7 75.1916933,76.244186 75.1916933,77.2575581 C75.1916933,77.4505814 75.1916933,77.5953488 75.14377,77.7401163 L71.3099042,77.7401163 L71.3099042,77.6918605 Z M74.1853035,76.9680233 C74.1853035,76.3406977 73.9456869,75.3755814 72.8434505,75.3755814 C71.8370607,75.3755814 71.4057508,76.2924419 71.3578275,76.9680233 L74.1853035,76.9680233 L74.1853035,76.9680233 Z" id="svg_22" fill="#888E87" fill-rule="nonzero"></path>
                            <path d="M78.4504792,79.2360465 C78.7380192,79.4290698 79.2651757,79.622093 79.7444089,79.622093 C80.4632588,79.622093 80.798722,79.2843023 80.798722,78.8017442 C80.798722,78.319186 80.5111821,78.077907 79.7923323,77.8366279 C78.8338658,77.4988372 78.3546326,76.9680233 78.3546326,76.2924419 C78.3546326,75.4238372 79.0734824,74.7 80.2236422,74.7 C80.7507987,74.7 81.2300319,74.8447674 81.5175719,75.0377907 L81.2779553,75.7616279 C81.086262,75.6168605 80.6549521,75.4238372 80.1757188,75.4238372 C79.600639,75.4238372 79.2651757,75.7616279 79.2651757,76.1476744 C79.2651757,76.5819767 79.600639,76.775 80.2715655,77.0645349 C81.1821086,77.4023256 81.7092652,77.8848837 81.7092652,78.7052326 C81.7092652,79.6703488 80.942492,80.3459302 79.6964856,80.3459302 C79.1214058,80.3459302 78.5463259,80.2011628 78.1629393,79.9598837 L78.4504792,79.2360465 L78.4504792,79.2360465 Z" id="svg_23" fill="#888E87" fill-rule="nonzero"></path>
                            <path d="M86.4057508,73.4936047 L86.4057508,74.7965116 L87.7955272,74.7965116 L87.7955272,75.5686047 L86.4057508,75.5686047 L86.4057508,78.5122093 C86.4057508,79.1877907 86.5974441,79.5738372 87.1246006,79.5738372 C87.4121406,79.5738372 87.5559105,79.5738372 87.6996805,79.5255814 L87.7476038,80.2976744 C87.5559105,80.3459302 87.2683706,80.4424419 86.884984,80.4424419 C86.4057508,80.4424419 86.0702875,80.2976744 85.8306709,80.0081395 C85.543131,79.7186047 85.4472843,79.2360465 85.4472843,78.5604651 L85.4472843,75.6168605 L84.6325879,75.6168605 L84.6325879,74.7965116 L85.4472843,74.7965116 L85.4472843,73.7831395 L86.4057508,73.4936047 L86.4057508,73.4936047 Z" id="svg_24" fill="#888E87" fill-rule="nonzero"></path>
                            <path d="M91.1501597,72.2389535 L92.1086262,72.2389535 L92.1086262,75.6168605 L92.1086262,75.6168605 C92.2523962,75.3273256 92.4920128,75.0860465 92.827476,74.8930233 C93.115016,74.7482558 93.4504792,74.6034884 93.8338658,74.6034884 C94.5527157,74.6034884 95.7028754,75.0377907 95.7028754,76.9197674 L95.7028754,80.152907 L94.7444089,80.152907 L94.7444089,77.0162791 C94.7444089,76.1476744 94.4089457,75.4238372 93.4984026,75.4238372 C92.8753994,75.4238372 92.3961661,75.8581395 92.2044728,76.3889535 C92.1565495,76.5337209 92.1565495,76.6784884 92.1565495,76.8715116 L92.1565495,80.152907 L91.1980831,80.152907 L91.1980831,72.2389535 L91.1501597,72.2389535 Z" id="svg_25" fill="#888E87" fill-rule="nonzero"></path>
                            <path d="M100.111821,77.6918605 C100.111821,79.0430233 100.974441,79.5738372 101.980831,79.5738372 C102.699681,79.5738372 103.13099,79.4290698 103.466454,79.2843023 L103.658147,80.0081395 C103.322684,80.152907 102.699681,80.3459302 101.837061,80.3459302 C100.159744,80.3459302 99.201278,79.2360465 99.201278,77.5953488 C99.201278,75.9546512 100.159744,74.7 101.741214,74.7 C103.514377,74.7 103.99361,76.244186 103.99361,77.2575581 C103.99361,77.4505814 103.99361,77.5953488 103.945687,77.7401163 L100.111821,77.7401163 L100.111821,77.6918605 Z M102.98722,76.9680233 C102.98722,76.3406977 102.747604,75.3755814 101.645367,75.3755814 C100.638978,75.3755814 100.207668,76.2924419 100.159744,76.9680233 L102.98722,76.9680233 L102.98722,76.9680233 Z" id="svg_26" fill="#888E87" fill-rule="nonzero"></path>
                            <path d="M108.546326,73.4936047 L108.546326,74.7965116 L109.936102,74.7965116 L109.936102,75.5686047 L108.546326,75.5686047 L108.546326,78.5122093 C108.546326,79.1877907 108.738019,79.5738372 109.265176,79.5738372 C109.552716,79.5738372 109.696486,79.5738372 109.840256,79.5255814 L109.888179,80.2976744 C109.696486,80.3459302 109.408946,80.4424419 109.025559,80.4424419 C108.546326,80.4424419 108.210863,80.2976744 107.971246,80.0081395 C107.683706,79.7186047 107.587859,79.2360465 107.587859,78.5604651 L107.587859,75.6168605 L106.773163,75.6168605 L106.773163,74.7965116 L107.587859,74.7965116 L107.587859,73.7831395 L108.546326,73.4936047 L108.546326,73.4936047 Z" id="svg_27" fill="#888E87" fill-rule="nonzero"></path>
                            <path d="M114.392971,73.2523256 C114.392971,73.5901163 114.153355,73.8796512 113.769968,73.8796512 C113.434505,73.8796512 113.194888,73.5901163 113.194888,73.2523256 C113.194888,72.9145349 113.434505,72.625 113.817891,72.625 C114.105431,72.625 114.392971,72.9145349 114.392971,73.2523256 L114.392971,73.2523256 Z M113.290735,80.2011628 L113.290735,74.7965116 L114.249201,74.7965116 L114.249201,80.2494186 L113.290735,80.2494186 L113.290735,80.2011628 Z" id="svg_28" fill="#888E87" fill-rule="nonzero"></path>
                            <path d="M121.964856,80.0081395 C121.72524,80.152907 121.15016,80.3459302 120.43131,80.3459302 C118.801917,80.3459302 117.747604,79.2360465 117.747604,77.5953488 C117.747604,75.9063953 118.897764,74.7 120.623003,74.7 C121.198083,74.7 121.72524,74.8447674 121.964856,74.9895349 L121.72524,75.7616279 C121.485623,75.6168605 121.102236,75.5203488 120.57508,75.5203488 C119.329073,75.5203488 118.658147,76.4372093 118.658147,77.5953488 C118.658147,78.85 119.472843,79.622093 120.527157,79.622093 C121.102236,79.622093 121.4377,79.4773256 121.72524,79.380814 L121.964856,80.0081395 L121.964856,80.0081395 Z" id="svg_29" fill="#888E87" fill-rule="nonzero"></path>
                            <path d="M125.223642,79.2360465 C125.511182,79.4290698 126.038339,79.622093 126.517572,79.622093 C127.236422,79.622093 127.571885,79.2843023 127.571885,78.8017442 C127.571885,78.319186 127.284345,78.077907 126.565495,77.8366279 C125.607029,77.4988372 125.127796,76.9680233 125.127796,76.2924419 C125.127796,75.4238372 125.846645,74.7 126.996805,74.7 C127.523962,74.7 128.003195,74.8447674 128.290735,75.0377907 L128.051118,75.7616279 C127.859425,75.6168605 127.428115,75.4238372 126.948882,75.4238372 C126.373802,75.4238372 126.038339,75.7616279 126.038339,76.1476744 C126.038339,76.5819767 126.373802,76.775 127.044728,77.0645349 C127.955272,77.4023256 128.482428,77.8848837 128.482428,78.7052326 C128.482428,79.6703488 127.715655,80.3459302 126.469649,80.3459302 C125.894569,80.3459302 125.319489,80.2011628 124.936102,79.9598837 L125.223642,79.2360465 L125.223642,79.2360465 Z" id="svg_30" fill="#888E87" fill-rule="nonzero"></path>
                            <path d="M136.15016,77.2575581 C136.15016,76.6302326 136.677316,76.0994186 137.300319,76.0994186 C137.971246,76.0994186 138.498403,76.6302326 138.498403,77.2575581 C138.498403,77.8848837 137.971246,78.4156977 137.300319,78.4156977 C136.677316,78.4639535 136.15016,77.9331395 136.15016,77.2575581 L136.15016,77.2575581 Z" id="svg_31" fill="#888E87" fill-rule="nonzero"></path>
                            <path d="M150.383387,80.0081395 C150.14377,80.152907 149.56869,80.3459302 148.84984,80.3459302 C147.220447,80.3459302 146.166134,79.2360465 146.166134,77.5953488 C146.166134,75.9063953 147.316294,74.7 149.041534,74.7 C149.616613,74.7 150.14377,74.8447674 150.383387,74.9895349 L150.14377,75.7616279 C149.904153,75.6168605 149.520767,75.5203488 148.99361,75.5203488 C147.747604,75.5203488 147.076677,76.4372093 147.076677,77.5953488 C147.076677,78.85 147.891374,79.622093 148.945687,79.622093 C149.520767,79.622093 149.85623,79.4773256 150.14377,79.380814 L150.383387,80.0081395 L150.383387,80.0081395 Z" id="svg_32" fill="#888E87" fill-rule="nonzero"></path>
                            <path d="M158.578275,77.4505814 C158.578275,79.4773256 157.188498,80.3459302 155.894569,80.3459302 C154.456869,80.3459302 153.306709,79.2843023 153.306709,77.547093 C153.306709,75.7616279 154.504792,74.6517442 155.990415,74.6517442 C157.523962,74.6517442 158.578275,75.8098837 158.578275,77.4505814 L158.578275,77.4505814 Z M154.313099,77.4988372 C154.313099,78.7052326 154.984026,79.5738372 155.942492,79.5738372 C156.900958,79.5738372 157.571885,78.7052326 157.571885,77.4505814 C157.571885,76.5337209 157.092652,75.3755814 155.942492,75.3755814 C154.792332,75.4238372 154.313099,76.4854651 154.313099,77.4988372 L154.313099,77.4988372 Z" id="svg_33" fill="#888E87" fill-rule="nonzero"></path>
                            <path d="M161.932907,79.2360465 C162.220447,79.4290698 162.747604,79.622093 163.226837,79.622093 C163.945687,79.622093 164.28115,79.2843023 164.28115,78.8017442 C164.28115,78.319186 163.99361,78.077907 163.27476,77.8366279 C162.316294,77.4988372 161.837061,76.9680233 161.837061,76.2924419 C161.837061,75.4238372 162.555911,74.7 163.70607,74.7 C164.233227,74.7 164.71246,74.8447674 165,75.0377907 L164.760383,75.7616279 C164.56869,75.6168605 164.13738,75.4238372 163.658147,75.4238372 C163.083067,75.4238372 162.747604,75.7616279 162.747604,76.1476744 C162.747604,76.5819767 163.083067,76.775 163.753994,77.0645349 C164.664537,77.4023256 165.191693,77.8848837 165.191693,78.7052326 C165.191693,79.6703488 164.42492,80.3459302 163.178914,80.3459302 C162.603834,80.3459302 162.028754,80.2011628 161.645367,79.9598837 L161.932907,79.2360465 L161.932907,79.2360465 Z" id="svg_34" fill="#888E87" fill-rule="nonzero"></path>
                            <path d="M168.690096,76.244186 C168.690096,75.6651163 168.690096,75.230814 168.642173,74.7965116 L169.504792,74.7965116 L169.552716,75.6651163 L169.600639,75.6651163 C169.888179,75.1343023 170.415335,74.6517442 171.325879,74.6517442 C172.044728,74.6517442 172.619808,75.0860465 172.859425,75.7616279 L172.859425,75.7616279 C173.003195,75.4238372 173.242812,75.230814 173.482428,75.0377907 C173.817891,74.7965116 174.153355,74.6517442 174.680511,74.6517442 C175.399361,74.6517442 176.453674,75.1343023 176.453674,77.0162791 L176.453674,80.2011628 L175.495208,80.2011628 L175.495208,77.1610465 C175.495208,76.0994186 175.111821,75.472093 174.297125,75.472093 C173.722045,75.472093 173.290735,75.9063953 173.146965,76.3406977 C173.099042,76.4854651 173.051118,76.6784884 173.051118,76.8232558 L173.051118,80.2011628 L172.092652,80.2011628 L172.092652,76.9680233 C172.092652,76.0994186 171.709265,75.472093 170.990415,75.472093 C170.367412,75.472093 169.936102,75.9546512 169.792332,76.4372093 C169.744409,76.5819767 169.696486,76.775 169.696486,76.9197674 L169.696486,80.2011628 L168.738019,80.2011628 L168.738019,76.244186 L168.690096,76.244186 Z" id="svg_35" fill="#888E87" fill-rule="nonzero"></path>
                            <path d="M180.766773,77.6918605 C180.814696,79.0430233 181.629393,79.5738372 182.635783,79.5738372 C183.354633,79.5738372 183.785942,79.4290698 184.121406,79.2843023 L184.313099,80.0081395 C183.977636,80.152907 183.354633,80.3459302 182.492013,80.3459302 C180.814696,80.3459302 179.85623,79.2360465 179.85623,77.5953488 C179.85623,75.9546512 180.814696,74.7 182.396166,74.7 C184.169329,74.7 184.648562,76.244186 184.648562,77.2575581 C184.648562,77.4505814 184.648562,77.5953488 184.600639,77.7401163 L180.766773,77.7401163 L180.766773,77.6918605 Z M183.642173,76.9680233 C183.642173,76.3406977 183.402556,75.3755814 182.300319,75.3755814 C181.29393,75.3755814 180.86262,76.2924419 180.814696,76.9680233 L183.642173,76.9680233 L183.642173,76.9680233 Z" id="svg_36" fill="#888E87" fill-rule="nonzero"></path>
                            <path d="M189.201278,73.4936047 L189.201278,74.7965116 L190.591054,74.7965116 L190.591054,75.5686047 L189.201278,75.5686047 L189.201278,78.5122093 C189.201278,79.1877907 189.392971,79.5738372 189.920128,79.5738372 C190.207668,79.5738372 190.351438,79.5738372 190.495208,79.5255814 L190.543131,80.2976744 C190.351438,80.3459302 190.063898,80.4424419 189.680511,80.4424419 C189.249201,80.4424419 188.865815,80.2976744 188.626198,80.0081395 C188.338658,79.7186047 188.242812,79.2360465 188.242812,78.5604651 L188.242812,75.6168605 L187.428115,75.6168605 L187.428115,74.7965116 L188.242812,74.7965116 L188.242812,73.7831395 L189.201278,73.4936047 L189.201278,73.4936047 Z" id="svg_37" fill="#888E87" fill-rule="nonzero"></path>
                            <path d="M198.738019,77.4505814 C198.738019,79.4773256 197.348243,80.3459302 196.054313,80.3459302 C194.616613,80.3459302 193.466454,79.2843023 193.466454,77.547093 C193.466454,75.7616279 194.664537,74.6517442 196.15016,74.6517442 C197.731629,74.6517442 198.738019,75.8098837 198.738019,77.4505814 L198.738019,77.4505814 Z M194.472843,77.4988372 C194.472843,78.7052326 195.14377,79.5738372 196.102236,79.5738372 C197.060703,79.5738372 197.731629,78.7052326 197.731629,77.4505814 C197.731629,76.5337209 197.252396,75.3755814 196.102236,75.3755814 C195,75.4238372 194.472843,76.4854651 194.472843,77.4988372 L194.472843,77.4988372 Z" id="svg_38" fill="#888E87" fill-rule="nonzero"></path>
                            <polygon id="svg_39" fill="#888E87" fill-rule="nonzero" points="202.236422 72.2389594 203.194888 72.2389594 203.194888 80.2011687 202.236422 80.2011687"></polygon>
                            <path d="M211.964856,77.4505814 C211.964856,79.4773256 210.57508,80.3459302 209.28115,80.3459302 C207.84345,80.3459302 206.693291,79.2843023 206.693291,77.547093 C206.693291,75.7616279 207.891374,74.6517442 209.376997,74.6517442 C210.910543,74.6517442 211.964856,75.8098837 211.964856,77.4505814 L211.964856,77.4505814 Z M207.699681,77.4988372 C207.699681,78.7052326 208.370607,79.5738372 209.329073,79.5738372 C210.28754,79.5738372 210.958466,78.7052326 210.958466,77.4505814 C210.958466,76.5337209 210.479233,75.3755814 209.329073,75.3755814 C208.226837,75.4238372 207.699681,76.4854651 207.699681,77.4988372 L207.699681,77.4988372 Z" id="svg_40" fill="#888E87" fill-rule="nonzero"></path>
                            <path d="M220.063898,79.4290698 C220.063898,80.6837209 219.824281,81.455814 219.297125,81.9383721 C218.769968,82.4209302 218.003195,82.5656977 217.332268,82.5656977 C216.709265,82.5656977 215.990415,82.4209302 215.559105,82.1313953 L215.798722,81.3593023 C216.134185,81.6005814 216.709265,81.7936047 217.380192,81.7936047 C218.386581,81.7936047 219.105431,81.2627907 219.105431,79.8633721 L219.105431,79.2843023 L219.057508,79.2843023 C218.769968,79.7668605 218.194888,80.2011628 217.332268,80.2011628 C215.990415,80.2011628 215.031949,79.0430233 215.031949,77.547093 C215.031949,75.7133721 216.230032,74.6517442 217.476038,74.6517442 C218.386581,74.6517442 218.913738,75.1343023 219.153355,75.5686047 L219.153355,75.5686047 L219.201278,74.7482558 L220.063898,74.7482558 C220.015974,75.1343023 220.015974,75.5686047 220.015974,76.244186 L220.015974,79.4290698 L220.063898,79.4290698 Z M219.057508,76.9197674 C219.057508,76.775 219.057508,76.5819767 219.009585,76.4854651 C218.817891,75.9063953 218.386581,75.4238372 217.619808,75.4238372 C216.661342,75.4238372 215.990415,76.244186 215.990415,77.4988372 C215.990415,78.5604651 216.517572,79.4290698 217.571885,79.4290698 C218.194888,79.4290698 218.722045,79.0430233 218.913738,78.4156977 C218.961661,78.2709302 219.009585,78.077907 219.009585,77.8848837 L219.009585,76.9197674 L219.057508,76.9197674 Z" id="svg_41" fill="#888E87" fill-rule="nonzero"></path>
                            <path d="M224.233227,74.7965116 L225.383387,78.0296512 C225.527157,78.3674419 225.670927,78.8017442 225.766773,79.1395349 L225.766773,79.1395349 C225.86262,78.8017442 225.958466,78.4156977 226.102236,78.0296512 L227.15655,74.8447674 L228.210863,74.8447674 L226.72524,78.7052326 C226.00639,80.5872093 225.527157,81.5040698 224.85623,82.0831395 C224.376997,82.5174419 223.897764,82.6622093 223.658147,82.7104651 L223.41853,81.8901163 C223.658147,81.7936047 223.99361,81.6488372 224.28115,81.4075581 C224.520767,81.2145349 224.85623,80.8284884 225.095847,80.2976744 C225.14377,80.2011628 225.191693,80.1046512 225.191693,80.0563953 C225.191693,80.0081395 225.191693,79.9116279 225.095847,79.8151163 L223.13099,74.7965116 L224.233227,74.7965116 L224.233227,74.7965116 Z" id="svg_42" fill="#888E87" fill-rule="nonzero"></path>
                            <path d="M235.543131,77.2575581 C235.543131,76.6302326 236.070288,76.0994186 236.693291,76.0994186 C237.364217,76.0994186 237.84345,76.6302326 237.84345,77.2575581 C237.84345,77.8848837 237.316294,78.4156977 236.645367,78.4156977 C236.070288,78.4639535 235.543131,77.9331395 235.543131,77.2575581 L235.543131,77.2575581 Z" id="svg_43" fill="#888E87" fill-rule="nonzero"></path>
                            <polygon id="svg_44" fill="#888E87" fill-rule="nonzero" points="245.942498 72.2389594 246.900964 72.2389594 246.900964 80.2011687 245.942498 80.2011687"></polygon>
                            <path d="M251.884984,73.2523256 C251.884984,73.5901163 251.645367,73.8796512 251.261981,73.8796512 C250.878594,73.8796512 250.686901,73.5901163 250.686901,73.2523256 C250.686901,72.9145349 250.926518,72.625 251.309904,72.625 C251.645367,72.625 251.884984,72.9145349 251.884984,73.2523256 L251.884984,73.2523256 Z M250.782748,80.2011628 L250.782748,74.7965116 L251.741214,74.7965116 L251.741214,80.2494186 L250.782748,80.2494186 L250.782748,80.2011628 Z" id="svg_45" fill="#888E87" fill-rule="nonzero"></path>
                            <path d="M255.71885,80.2011628 L255.71885,75.5203488 L255,75.5203488 L255,74.7965116 L255.71885,74.7965116 L255.71885,74.5552326 C255.71885,73.7831395 255.910543,73.1075581 256.341853,72.6732558 C256.72524,72.3354651 257.204473,72.1906977 257.635783,72.1906977 C257.971246,72.1906977 258.306709,72.2872093 258.450479,72.3354651 L258.306709,73.1075581 C258.162939,73.0593023 257.971246,72.9627907 257.683706,72.9627907 C256.86901,72.9627907 256.629393,73.6866279 256.629393,74.5552326 L256.629393,74.8447674 L257.923323,74.8447674 L257.923323,75.6168605 L256.629393,75.6168605 L256.629393,80.2976744 L255.71885,80.2976744 L255.71885,80.2011628 Z" id="svg_46" fill="#888E87" fill-rule="nonzero"></path>
                            <path d="M261.517572,77.6918605 C261.517572,79.0430233 262.380192,79.5738372 263.386581,79.5738372 C264.105431,79.5738372 264.536741,79.4290698 264.872204,79.2843023 L265.063898,80.0081395 C264.728435,80.152907 264.105431,80.3459302 263.242812,80.3459302 C261.565495,80.3459302 260.607029,79.2360465 260.607029,77.5953488 C260.607029,75.9546512 261.565495,74.7 263.146965,74.7 C264.920128,74.7 265.351438,76.244186 265.351438,77.2575581 C265.351438,77.4505814 265.351438,77.5953488 265.303514,77.7401163 L261.517572,77.7401163 L261.517572,77.6918605 Z M264.392971,76.9680233 C264.392971,76.3406977 264.153355,75.3755814 263.051118,75.3755814 C262.044728,75.3755814 261.613419,76.2924419 261.565495,76.9680233 L264.392971,76.9680233 L264.392971,76.9680233 Z" id="svg_47" fill="#888E87" fill-rule="nonzero"></path>
                            <path d="M268.658147,79.2360465 C268.945687,79.4290698 269.472843,79.622093 269.952077,79.622093 C270.670927,79.622093 271.00639,79.2843023 271.00639,78.8017442 C271.00639,78.319186 270.71885,78.077907 270,77.8366279 C269.041534,77.4988372 268.5623,76.9680233 268.5623,76.2924419 C268.5623,75.4238372 269.28115,74.7 270.43131,74.7 C270.958466,74.7 271.4377,74.8447674 271.72524,75.0377907 L271.485623,75.7616279 C271.246006,75.6168605 270.86262,75.4238372 270.383387,75.4238372 C269.808307,75.4238372 269.472843,75.7616279 269.472843,76.1476744 C269.472843,76.5819767 269.808307,76.775 270.479233,77.0645349 C271.389776,77.4023256 271.916933,77.8848837 271.916933,78.7052326 C271.916933,79.6703488 271.15016,80.3459302 269.904153,80.3459302 C269.329073,80.3459302 268.753994,80.2011628 268.370607,79.9598837 L268.658147,79.2360465 L268.658147,79.2360465 Z" id="svg_48" fill="#888E87" fill-rule="nonzero"></path>
                            <path d="M276.613419,73.4936047 L276.613419,74.7965116 L278.003195,74.7965116 L278.003195,75.5686047 L276.613419,75.5686047 L276.613419,78.5122093 C276.613419,79.1877907 276.805112,79.5738372 277.332268,79.5738372 C277.619808,79.5738372 277.763578,79.5738372 277.907348,79.5255814 L277.955272,80.2976744 C277.763578,80.3459302 277.476038,80.4424419 277.092652,80.4424419 C276.613419,80.4424419 276.277955,80.2976744 276.038339,80.0081395 C275.750799,79.7186047 275.654952,79.2360465 275.654952,78.5604651 L275.654952,75.6168605 L274.840256,75.6168605 L274.840256,74.7965116 L275.654952,74.7965116 L275.654952,73.7831395 L276.613419,73.4936047 L276.613419,73.4936047 Z" id="svg_49" fill="#888E87" fill-rule="nonzero"></path>
                            <path d="M281.789137,74.7965116 L282.939297,78.0296512 C283.083067,78.3674419 283.226837,78.8017442 283.27476,79.1395349 L283.27476,79.1395349 C283.370607,78.8017442 283.466454,78.4156977 283.610224,78.0296512 L284.664537,74.8447674 L285.71885,74.8447674 L284.233227,78.7052326 C283.514377,80.5872093 283.035144,81.5040698 282.364217,82.0831395 C281.884984,82.5174419 281.405751,82.6622093 281.166134,82.7104651 L280.926518,81.8901163 C281.166134,81.7936047 281.501597,81.6488372 281.789137,81.4075581 C282.076677,81.2145349 282.364217,80.8284884 282.603834,80.2976744 C282.651757,80.2011628 282.699681,80.1046512 282.699681,80.0563953 C282.699681,80.0081395 282.651757,79.9116279 282.603834,79.8151163 L280.638978,74.7965116 L281.789137,74.7965116 L281.789137,74.7965116 Z" id="svg_50" fill="#888E87" fill-rule="nonzero"></path>
                            <polygon id="svg_51" fill="#888E87" fill-rule="nonzero" points="288.929724 72.2389594 289.888191 72.2389594 289.888191 80.2011687 288.929724 80.2011687"></polygon>
                            <path d="M294.345048,77.6918605 C294.345048,79.0430233 295.207668,79.5738372 296.214058,79.5738372 C296.932907,79.5738372 297.364217,79.4290698 297.699681,79.2843023 L297.891374,80.0081395 C297.555911,80.152907 296.932907,80.3459302 296.070288,80.3459302 C294.392971,80.3459302 293.434505,79.2360465 293.434505,77.5953488 C293.434505,75.9546512 294.392971,74.7 295.974441,74.7 C297.747604,74.7 298.178914,76.244186 298.178914,77.2575581 C298.178914,77.4505814 298.178914,77.5953488 298.13099,77.7401163 L294.345048,77.7401163 L294.345048,77.6918605 Z M297.220447,76.9680233 C297.220447,76.3406977 296.980831,75.3755814 295.878594,75.3755814 C294.872204,75.3755814 294.440895,76.2924419 294.392971,76.9680233 L297.220447,76.9680233 L297.220447,76.9680233 Z" id="svg_52" fill="#888E87" fill-rule="nonzero"></path>
                        </g>
                    </g>
                </g>
            </g>
        </g>
    </g>
</svg>
