
<svg width="29px" height="29px" viewBox="0 0 29 29" version="1.1" xmlns="http://www.w3.org/2000/svg" xmlns:xlink="http://www.w3.org/1999/xlink">
    <!-- Generator: Sketch 43.1 (39012) - http://www.bohemiancoding.com/sketch -->
    <desc>Created with Sketch.</desc>
    <defs></defs>
    <g id="Page-1" stroke="none" stroke-width="1" fill="none" fill-rule="evenodd">
        <g id="gallery-item" transform="translate(-1161.000000, -1064.000000)" fill-rule="nonzero" fill="#676767">
            <path d="M1175.5,1064 C1167.525,1064 1161,1070.525 1161,1078.5 C1161,1084.25169 1164.43169,1089.47169 1169.7,1091.79169 L1170.32831,1092.13 L1170.28,1091.35669 C1170.23169,1090.14837 1170.32831,1089.13337 1170.52169,1088.26337 C1170.76337,1087.10337 1172.31,1080.62669 1172.31,1080.62669 L1172.35831,1080.43337 L1172.26163,1080.28837 C1172.26163,1080.28837 1171.87494,1079.51506 1171.87494,1078.30669 C1171.87494,1076.56669 1172.84163,1075.165 1174.09826,1075.165 C1175.40326,1075.165 1175.49994,1076.42169 1175.49994,1076.80831 C1175.49994,1077.53331 1175.16163,1078.54831 1174.82326,1079.66 C1174.62994,1080.28831 1174.38826,1080.965 1174.24326,1081.64169 C1174.04994,1082.46337 1174.24326,1083.285 1174.72657,1083.91337 C1175.25826,1084.54169 1176.07989,1084.92837 1176.94989,1084.92837 C1179.7532,1084.92837 1181.87989,1081.54506 1181.87989,1077.00169 C1181.87989,1073.47337 1179.36657,1071.15337 1175.5482,1071.15337 C1171.3432,1071.15337 1168.1532,1074.24669 1168.1532,1078.35506 C1168.1532,1079.56337 1168.49152,1080.57837 1169.1682,1081.40006 C1169.3132,1081.54506 1169.3132,1081.59337 1169.3132,1081.59337 C1169.3132,1081.64169 1169.3132,1081.64169 1169.26489,1081.78669 L1169.26489,1081.88337 C1169.21657,1082.17337 1169.07157,1082.65669 1169.0232,1082.89837 L1169.0232,1082.94669 L1168.975,1082.94669 C1167.33169,1082.27 1166.41331,1080.48169 1166.41331,1078.01669 C1166.41331,1072.31337 1171.97163,1069.75169 1175.935,1069.75169 C1181.20331,1069.75169 1184.345,1073.57 1184.345,1077.29169 C1184.345,1082.65669 1181.445,1086.42669 1177.28831,1086.42669 C1175.88663,1086.42669 1174.67831,1085.65337 1174.29163,1084.92837 L1173.71163,1083.81669 L1173.42163,1085.025 C1173.42163,1085.025 1172.59994,1088.215 1172.45494,1088.84331 C1172.21326,1089.665 1171.77826,1090.63163 1171.10163,1091.695 L1170.76331,1092.22669 L1171.39163,1092.42 C1172.745,1092.80669 1174.09831,1093 1175.5,1093 C1183.475,1093 1190,1086.475 1190,1078.5 C1190,1070.525 1183.475,1064 1175.5,1064 Z M1175.5,1092.03331 C1174.38831,1092.03331 1173.325,1091.88831 1172.26169,1091.64663 C1172.79337,1090.72831 1173.18,1089.85831 1173.42169,1089.18163 C1173.56669,1088.74663 1173.95337,1087.24831 1174.195,1086.23331 C1174.96831,1086.91 1176.225,1087.39331 1177.385,1087.39331 C1182.025,1087.39331 1185.40831,1083.14 1185.40831,1077.29163 C1185.40831,1073.13494 1181.88,1068.78494 1176.03163,1068.78494 C1172.01994,1068.78494 1169.55494,1070.42826 1168.20163,1071.82994 C1166.50994,1073.52163 1165.54331,1075.79326 1165.54331,1078.01663 C1165.54331,1080.81994 1166.75163,1082.99494 1168.73331,1083.81663 C1169.02331,1083.96163 1169.31331,1083.96163 1169.555,1083.81663 C1169.845,1083.67163 1169.99,1083.42994 1170.08669,1083.13994 C1170.135,1082.89826 1170.23169,1082.36663 1170.32837,1082.07663 L1170.32837,1081.97994 C1170.47337,1081.44826 1170.37669,1081.15826 1170.03837,1080.77163 C1169.45837,1080.14331 1169.21669,1079.36994 1169.21669,1078.35494 C1169.21669,1074.29494 1172.55169,1072.11994 1175.645,1072.11994 C1178.98,1072.11994 1181.01,1074.00494 1181.01,1077.00163 C1181.01,1080.96494 1179.31831,1083.96163 1177.04669,1083.96163 C1176.46669,1083.96163 1175.935,1083.71994 1175.59669,1083.28494 C1175.30669,1082.89826 1175.16169,1082.36663 1175.30669,1081.83494 C1175.45169,1081.20663 1175.645,1080.52994 1175.83837,1079.90163 C1176.22506,1078.74163 1176.56337,1077.62994 1176.56337,1076.75994 C1176.56337,1075.21326 1175.59669,1074.14994 1174.19506,1074.14994 C1172.40674,1074.14994 1171.00506,1075.93826 1171.00506,1078.25826 C1171.00506,1079.36994 1171.29506,1080.19157 1171.44006,1080.52994 C1171.19837,1081.54494 1169.89337,1087.00663 1169.65174,1088.02163 C1169.45843,1088.74663 1169.36174,1089.61663 1169.36174,1090.58331 C1164.86669,1088.26331 1161.96669,1083.62331 1161.96669,1078.5 C1161.96669,1071.05669 1168.05669,1064.96669 1175.5,1064.96669 C1182.94331,1064.96669 1189.03331,1071.05669 1189.03331,1078.5 C1189.03331,1085.94331 1182.94331,1092.03331 1175.5,1092.03331 Z" id="Shape"></path>
        </g>
    </g>
</svg>
