
<svg width="29px" height="24px" viewBox="0 0 29 24" version="1.1" xmlns="http://www.w3.org/2000/svg" xmlns:xlink="http://www.w3.org/1999/xlink">
    <!-- Generator: Sketch 43.1 (39012) - http://www.bohemiancoding.com/sketch -->
    <desc>Created with Sketch.</desc>
    <defs></defs>
    <g id="Page-1" stroke="none" stroke-width="1" fill="none" fill-rule="evenodd">
        <g id="gallery-item" transform="translate(-1052.000000, -1067.000000)" fill-rule="nonzero" fill="#676767">
            <path d="M1080.83387,1069.70176 C1080.68622,1069.55179 1080.44011,1069.50179 1080.24317,1069.55179 L1079.25871,1069.90179 C1079.84941,1069.20186 1080.24317,1068.45192 1080.48928,1067.75198 C1080.58775,1067.502 1080.53852,1067.30203 1080.39081,1067.15201 C1080.24317,1067.00204 1079.99705,1066.95204 1079.80012,1067.05199 C1078.4219,1067.65197 1077.24056,1068.15193 1076.2561,1068.45186 C1076.2561,1068.50187 1076.20687,1068.45186 1076.15763,1068.45186 C1075.37005,1068.00191 1073.45037,1067.00199 1072.07215,1067.00199 C1068.57731,1067.05199 1065.77164,1070.05175 1065.77164,1073.70144 L1065.77164,1073.90141 C1060.65247,1072.90149 1057.8468,1071.40161 1054.79496,1068.15187 L1054.30284,1067.65191 L1054.00749,1068.25189 C1052.33392,1071.50162 1053.51526,1074.45138 1055.43494,1076.45122 C1054.54895,1076.30125 1053.95826,1076.00126 1053.41679,1075.55131 C1053.21991,1075.40135 1052.9738,1075.35134 1052.72768,1075.5013 C1052.5308,1075.60132 1052.43233,1075.90125 1052.48157,1076.15123 C1053.17068,1078.501 1054.89348,1080.40089 1056.76393,1081.55077 C1055.87794,1081.55077 1055.1396,1081.45076 1054.40125,1080.9508 C1054.20437,1080.85078 1053.90902,1080.85078 1053.71214,1081.0008 C1053.51526,1081.15083 1053.41679,1081.40075 1053.51526,1081.65073 C1054.40125,1084.20054 1056.12405,1085.55039 1058.88055,1085.90039 C1057.45309,1086.75034 1055.58265,1087.45027 1052.67851,1087.50028 C1052.38316,1087.50028 1052.13704,1087.70025 1052.03863,1087.95023 C1051.94016,1088.25022 1052.03863,1088.5002 1052.23551,1088.70017 C1054.00755,1090.15005 1057.94532,1091 1062.81838,1091 C1071.48157,1091 1078.56966,1083.15067 1078.56966,1073.50146 L1078.56966,1073.3515 C1079.65258,1072.80153 1080.53857,1071.7516 1080.98157,1070.30173 C1081.03075,1070.1017 1080.98151,1069.85172 1080.83387,1069.70176 Z M1077.88049,1072.55149 L1077.58514,1072.65151 L1077.58514,1073.50146 C1077.58514,1082.6007 1070.94005,1090.00008 1062.81832,1090.00008 C1058.33903,1090.00008 1055.33648,1089.25014 1053.71214,1088.45019 C1057.10851,1088.20021 1059.07743,1087.10028 1060.60335,1085.90039 L1061.83392,1085.00048 L1060.35724,1085.00048 C1057.55156,1085.00048 1055.82876,1084.20054 1054.8443,1082.30071 C1055.73029,1082.6007 1056.66552,1082.6007 1057.69921,1082.55069 C1058.09297,1082.50068 1058.48679,1082.50068 1058.88055,1082.50068 L1059.02819,1081.50076 C1057.15775,1080.9508 1054.94271,1079.25094 1053.85979,1076.95118 C1054.84425,1077.40113 1055.92712,1077.50114 1056.91157,1077.50114 L1058.4375,1077.50114 L1057.20698,1076.60118 C1056.17329,1075.85124 1053.1215,1073.20148 1054.59819,1069.40177 C1057.74844,1072.55149 1060.75105,1074.00137 1066.16552,1075.00129 L1066.75621,1075.1013 L1066.75621,1073.70144 C1066.75621,1070.60172 1069.11889,1068.05191 1072.07227,1068.00191 C1073.20437,1067.9519 1075.07488,1069.00183 1075.61628,1069.30181 C1075.91163,1069.45178 1076.20698,1069.50179 1076.50227,1069.40183 C1077.24062,1069.15185 1078.12661,1068.80185 1079.11106,1068.40191 C1078.66807,1069.15185 1078.07737,1069.85178 1077.28985,1070.50176 C1077.09297,1070.65173 1077.04374,1070.95172 1077.1422,1071.2017 C1077.24067,1071.45168 1077.53596,1071.55169 1077.78208,1071.45168 L1079.70176,1070.80175 C1079.35718,1071.45162 1078.81572,1072.20156 1077.88049,1072.55149 Z" id="Shape"></path>
        </g>
    </g>
</svg>
